<?xml version="1.0" standalone="no"?>
<!DOCTYPE svg PUBLIC "-//W3C//DTD SVG 20010904//EN"
 "http://www.w3.org/TR/2001/REC-SVG-20010904/DTD/svg10.dtd">
<svg version="1.0" xmlns="http://www.w3.org/2000/svg"
 width="3678.000000pt" height="3678.000000pt" viewBox="0 0 3678.000000 3678.000000"
 preserveAspectRatio="xMidYMid meet">
<metadata>
Created by Fabian Duerkop on 07-May-2019
</metadata>
<g transform="translate(0.000000,3678.000000) scale(0.100000,-0.100000)"
fill="#000000" stroke="none">
<path d="M17918 36765 c-2 -2 -97 -6 -213 -10 -115 -4 -230 -9 -255 -10 -211
-11 -301 -17 -340 -21 -25 -2 -88 -7 -140 -9 -52 -3 -106 -7 -120 -10 -14 -2
-63 -7 -110 -10 -47 -4 -101 -8 -120 -10 -19 -2 -64 -7 -100 -10 -36 -3 -76
-8 -90 -10 -14 -2 -54 -7 -90 -10 -36 -4 -76 -8 -90 -10 -14 -2 -54 -7 -90
-10 -36 -4 -74 -9 -85 -11 -11 -2 -40 -6 -65 -9 -25 -3 -65 -8 -90 -11 -25 -3
-56 -7 -70 -9 -14 -3 -47 -7 -75 -10 -27 -4 -57 -8 -65 -10 -8 -2 -35 -7 -60
-10 -25 -3 -101 -15 -170 -26 -69 -11 -136 -22 -150 -24 -14 -2 -52 -9 -85
-15 -33 -6 -76 -13 -95 -16 -19 -3 -42 -7 -50 -9 -8 -2 -31 -7 -50 -10 -19 -3
-46 -8 -60 -10 -57 -12 -76 -15 -105 -20 -60 -11 -331 -66 -365 -75 -19 -5
-51 -12 -70 -15 -19 -3 -64 -13 -100 -21 -36 -9 -72 -17 -81 -19 -102 -21
-620 -152 -759 -191 -69 -20 -132 -37 -140 -39 -8 -2 -114 -33 -235 -70 -121
-36 -227 -67 -235 -69 -54 -14 -624 -208 -810 -276 -283 -103 -752 -288 -875
-345 -59 -27 -125 -55 -130 -55 -2 0 -30 -12 -62 -26 -92 -42 -165 -75 -200
-90 -36 -16 -159 -73 -283 -131 -919 -431 -1889 -999 -2755 -1612 -121 -85
-224 -159 -230 -163 -5 -5 -98 -74 -205 -154 -107 -81 -207 -156 -221 -168
-14 -11 -40 -32 -59 -46 -35 -26 -128 -100 -195 -155 -22 -18 -94 -77 -160
-130 -143 -117 -499 -422 -571 -490 -6 -5 -44 -40 -85 -76 -114 -103 -124
-112 -284 -263 -293 -276 -827 -821 -1015 -1036 -8 -9 -46 -51 -83 -92 -72
-80 -76 -85 -147 -168 -25 -29 -56 -65 -70 -80 -30 -33 -65 -74 -211 -250 -61
-74 -121 -146 -133 -160 -11 -14 -33 -42 -48 -62 -15 -20 -33 -42 -41 -50 -19
-20 -272 -347 -388 -503 -270 -361 -600 -842 -815 -1188 -122 -196 -249 -405
-294 -482 -22 -38 -52 -90 -66 -115 -259 -446 -592 -1090 -780 -1505 -14 -33
-42 -94 -61 -135 -324 -703 -669 -1646 -918 -2515 -49 -171 -164 -607 -190
-725 -2 -8 -17 -73 -34 -145 -16 -71 -33 -145 -36 -164 -3 -19 -8 -37 -10 -41
-2 -3 -6 -17 -9 -31 -2 -13 -27 -136 -55 -274 -43 -214 -70 -361 -96 -515 -3
-19 -7 -46 -10 -60 -9 -47 -69 -440 -80 -520 -3 -25 -8 -56 -10 -70 -2 -14 -7
-50 -10 -80 -3 -30 -8 -66 -10 -80 -2 -14 -6 -47 -10 -75 -3 -27 -10 -84 -15
-125 -5 -41 -12 -102 -15 -135 -3 -33 -8 -76 -10 -95 -2 -19 -7 -66 -10 -105
-3 -38 -8 -88 -10 -110 -8 -78 -15 -161 -20 -245 -4 -47 -8 -101 -10 -120 -2
-19 -7 -91 -10 -160 -4 -69 -8 -150 -10 -180 -15 -243 -20 -473 -19 -975 0
-503 4 -709 19 -980 13 -227 16 -285 20 -320 2 -22 7 -85 10 -140 4 -55 8
-111 10 -125 2 -14 7 -65 10 -115 4 -49 8 -97 10 -105 2 -8 6 -53 10 -100 11
-122 13 -137 30 -275 2 -16 7 -57 10 -90 3 -33 8 -71 11 -85 4 -22 28 -199 40
-290 3 -31 12 -89 30 -210 13 -82 76 -451 89 -520 8 -41 17 -91 20 -110 3 -19
13 -69 22 -110 8 -41 17 -86 20 -100 2 -14 13 -63 23 -110 10 -47 21 -100 25
-117 21 -125 152 -658 235 -960 223 -811 548 -1742 835 -2388 7 -16 27 -62 44
-102 17 -39 41 -93 53 -120 12 -26 22 -50 23 -53 1 -3 15 -34 32 -70 16 -36
40 -87 53 -115 281 -619 698 -1387 1126 -2073 65 -106 476 -723 520 -782 22
-30 83 -113 134 -185 155 -215 530 -708 587 -770 10 -11 34 -40 53 -65 84
-108 532 -634 589 -691 9 -9 52 -56 96 -104 361 -399 859 -895 1249 -1246 28
-24 57 -51 66 -59 41 -39 176 -158 285 -250 66 -56 134 -114 150 -128 57 -51
201 -168 355 -292 85 -68 157 -128 158 -132 2 -4 10 -8 17 -8 7 0 15 -3 17 -7
5 -12 429 -333 610 -461 521 -371 1080 -728 1628 -1039 307 -174 525 -289 905
-477 276 -137 554 -268 760 -358 39 -17 94 -41 123 -54 29 -13 55 -24 57 -24
3 0 24 -9 48 -19 116 -54 473 -195 777 -308 468 -175 1089 -373 1570 -503 85
-23 387 -100 410 -105 8 -2 51 -12 95 -23 110 -27 504 -116 555 -125 14 -3 95
-19 180 -35 85 -17 182 -36 215 -41 33 -6 71 -13 85 -16 34 -7 128 -23 170
-30 19 -3 60 -10 90 -15 30 -5 71 -12 90 -15 19 -3 46 -7 60 -10 14 -3 48 -7
75 -10 28 -4 57 -8 65 -10 8 -2 39 -7 69 -10 30 -4 62 -8 73 -10 21 -4 217
-31 293 -40 28 -3 64 -8 80 -10 17 -3 53 -7 80 -10 28 -2 70 -7 95 -9 25 -3
70 -8 100 -11 30 -3 71 -8 90 -10 19 -2 67 -7 105 -10 39 -3 93 -8 120 -11 51
-5 95 -8 240 -19 44 -3 107 -7 140 -10 59 -5 173 -11 345 -20 474 -24 1383
-24 1765 0 39 2 122 7 185 10 63 3 142 8 175 10 33 3 92 7 130 10 128 8 220
15 260 20 22 3 69 7 105 10 66 5 236 22 300 30 19 2 60 7 90 10 125 14 217 25
250 30 54 8 201 28 295 41 28 3 52 7 55 9 3 2 34 6 70 10 36 4 67 8 70 10 3 2
30 6 60 10 30 3 62 8 70 10 8 2 31 7 50 10 19 3 85 14 145 25 61 10 124 21
141 24 17 3 66 13 110 21 43 9 95 18 114 21 19 3 42 7 50 10 8 3 62 14 120 25
58 11 195 41 305 66 246 55 207 46 355 83 69 17 132 32 140 34 217 54 528 140
785 217 203 62 802 256 820 267 6 4 15 7 20 8 37 7 648 241 900 346 263 109
614 266 890 398 72 34 139 66 150 71 11 5 27 13 35 19 8 5 60 31 115 58 106
52 347 176 430 222 28 15 82 44 120 65 260 140 694 394 980 573 188 118 575
376 802 535 198 139 610 441 623 457 3 3 23 19 45 36 22 16 46 34 55 41 123
97 253 201 285 227 85 70 291 241 302 251 6 5 33 28 59 50 66 55 229 198 363
319 441 398 960 914 1312 1306 149 166 272 305 314 354 28 33 66 78 86 100 19
23 69 82 109 131 41 50 77 92 80 95 3 3 41 50 85 105 44 55 87 109 97 120 254
313 625 820 895 1225 79 118 147 220 151 225 10 13 222 350 290 462 73 119
342 583 342 589 0 2 10 21 23 42 13 20 45 78 72 127 26 50 61 115 78 145 54
99 351 693 404 805 46 99 75 161 133 290 53 116 110 246 110 250 0 2 11 28 25
57 74 160 282 689 402 1023 98 272 269 790 299 905 2 8 19 69 39 135 70 237
215 779 239 895 3 14 12 54 20 90 9 36 22 94 30 130 22 96 94 439 101 480 3
19 8 42 10 50 5 17 6 24 36 190 11 63 22 126 25 140 9 46 12 65 20 115 4 28 8
55 10 60 4 18 33 198 40 250 3 28 8 59 10 70 2 11 7 38 9 60 8 64 15 116 25
180 5 33 12 87 16 120 3 33 8 69 10 80 2 11 6 47 9 80 3 33 7 71 10 85 2 14 7
54 10 90 3 36 8 81 10 100 10 73 14 118 20 205 3 50 8 101 10 115 3 14 7 59
10 100 3 41 7 104 10 140 5 61 7 104 20 305 5 92 14 289 21 490 13 400 3 1169
-20 1560 -20 328 -33 509 -41 585 -2 25 -7 74 -10 110 -9 102 -22 230 -30 300
-2 19 -7 60 -10 90 -3 30 -8 71 -10 90 -5 38 -6 49 -30 240 -9 69 -18 141 -21
160 -2 19 -6 46 -9 60 -3 14 -7 43 -11 65 -3 22 -7 51 -9 65 -3 14 -11 70 -20
125 -8 55 -17 109 -19 120 -2 11 -7 40 -11 65 -4 25 -9 52 -10 60 -1 8 -6 35
-10 60 -4 25 -9 54 -11 65 -2 11 -6 34 -9 50 -3 17 -11 55 -17 85 -6 30 -12
62 -13 70 -1 8 -5 29 -8 45 -4 17 -9 46 -12 65 -4 19 -11 55 -16 80 -6 25 -13
54 -15 66 -2 11 -18 85 -35 165 -17 79 -32 155 -35 167 -45 227 -254 1011
-357 1337 -19 61 -36 116 -38 124 -10 32 -190 573 -214 641 -55 155 -197 533
-215 575 -5 11 -35 83 -66 160 -83 207 -185 446 -261 615 -14 30 -33 73 -43
95 -110 249 -388 810 -530 1070 -15 28 -45 84 -68 125 -264 494 -711 1213
-1071 1725 -152 217 -544 749 -571 775 -3 3 -68 84 -145 180 -76 96 -164 204
-194 240 -31 36 -74 87 -96 114 -22 27 -47 56 -55 66 -206 239 -260 300 -369
420 -215 238 -364 393 -651 680 -260 260 -387 382 -615 590 -33 30 -62 57 -65
60 -34 35 -376 330 -590 510 -54 45 -331 268 -405 325 -21 17 -50 39 -64 51
-33 26 -388 294 -418 314 -11 8 -90 64 -175 124 -84 60 -189 135 -233 166
-126 90 -476 320 -486 320 -5 0 -9 5 -9 10 0 6 -5 10 -11 10 -6 0 -31 15 -57
32 -26 18 -56 38 -67 44 -11 6 -87 53 -170 104 -655 407 -1406 803 -2150 1135
-82 36 -159 70 -170 75 -232 104 -765 315 -1090 432 -214 77 -636 219 -695
234 -8 2 -94 28 -190 57 -284 88 -910 258 -1030 280 -14 3 -63 15 -110 26 -47
12 -96 24 -110 26 -14 2 -74 16 -135 29 -60 14 -121 27 -135 30 -14 2 -104 20
-200 40 -188 38 -389 76 -430 81 -14 2 -79 13 -145 24 -66 11 -138 23 -160 26
-22 2 -51 7 -65 10 -14 3 -45 7 -70 10 -25 3 -56 8 -70 10 -44 8 -83 14 -170
25 -47 6 -96 13 -110 15 -14 2 -50 7 -80 10 -30 3 -66 8 -80 10 -42 6 -122 15
-175 20 -27 2 -66 6 -85 9 -19 3 -64 8 -100 11 -36 3 -83 8 -105 10 -67 7
-164 15 -234 21 -36 2 -91 7 -121 9 -102 8 -214 16 -290 20 -206 11 -295 16
-405 21 -123 6 -1182 14 -1187 9z m1162 -1009 c114 -6 295 -16 405 -21 77 -4
156 -10 275 -20 30 -2 87 -7 125 -10 73 -6 156 -13 215 -20 91 -10 140 -15
194 -20 33 -3 73 -7 90 -10 67 -8 123 -15 176 -20 30 -3 64 -8 75 -10 11 -1
45 -6 75 -10 30 -4 66 -8 79 -10 13 -3 45 -7 70 -11 25 -3 57 -8 71 -10 14 -2
45 -6 70 -10 25 -3 52 -7 60 -9 8 -2 38 -7 65 -10 28 -4 57 -8 65 -10 8 -3 33
-7 55 -10 44 -7 135 -22 175 -30 14 -3 66 -12 115 -21 801 -138 1830 -413
2685 -717 298 -106 841 -319 1025 -402 17 -8 91 -41 165 -73 312 -138 456
-206 805 -382 171 -87 337 -172 370 -190 33 -18 85 -46 115 -62 30 -17 73 -40
95 -53 342 -193 547 -314 793 -469 105 -66 200 -126 210 -131 26 -15 384 -254
487 -325 154 -107 362 -258 549 -400 98 -74 190 -144 205 -155 51 -38 426
-339 461 -369 20 -17 60 -51 90 -76 30 -25 75 -63 100 -85 25 -22 77 -67 115
-100 74 -65 239 -211 265 -235 9 -8 75 -69 146 -135 406 -377 814 -794 1164
-1190 189 -213 200 -226 245 -280 22 -27 58 -69 79 -94 43 -50 48 -56 98 -116
18 -23 39 -47 46 -55 27 -32 194 -243 300 -380 61 -80 115 -149 120 -155 33
-41 239 -323 314 -429 169 -240 507 -745 529 -791 5 -11 27 -47 48 -80 22 -33
69 -109 106 -170 36 -60 70 -117 76 -125 13 -22 127 -218 155 -267 13 -24 36
-64 50 -90 15 -27 46 -82 69 -123 304 -544 664 -1301 897 -1885 44 -110 84
-209 88 -220 10 -21 84 -221 127 -340 14 -38 29 -79 34 -90 36 -79 288 -865
344 -1070 8 -27 29 -106 48 -175 79 -284 213 -834 244 -1000 2 -14 20 -101 39
-195 18 -93 39 -197 45 -230 6 -33 14 -80 19 -105 5 -25 12 -63 15 -85 8 -44
9 -53 24 -140 6 -33 13 -73 15 -90 7 -45 66 -454 72 -500 2 -22 7 -51 9 -65 2
-14 7 -50 10 -80 3 -30 8 -71 10 -90 3 -19 7 -58 10 -86 3 -28 7 -71 10 -95 7
-60 13 -123 20 -191 3 -32 7 -82 10 -110 3 -29 7 -84 10 -123 3 -38 7 -92 9
-120 3 -27 7 -95 11 -150 3 -55 8 -129 10 -165 4 -63 12 -243 21 -465 5 -135
5 -909 0 -1060 -9 -241 -31 -668 -41 -775 -2 -19 -6 -73 -10 -120 -3 -47 -8
-101 -10 -120 -2 -19 -7 -66 -10 -105 -4 -38 -8 -86 -10 -105 -2 -19 -7 -64
-10 -100 -4 -36 -8 -76 -10 -90 -2 -14 -9 -71 -15 -127 -6 -56 -12 -110 -14
-120 -2 -10 -7 -45 -10 -78 -4 -33 -9 -67 -11 -75 -2 -8 -6 -40 -10 -71 -3
-31 -8 -67 -10 -80 -3 -12 -9 -57 -15 -98 -6 -42 -12 -87 -15 -101 -2 -14 -11
-70 -20 -125 -9 -55 -18 -111 -21 -125 -2 -14 -6 -38 -9 -55 -10 -56 -55 -300
-60 -325 -3 -14 -7 -34 -9 -45 -3 -11 -14 -69 -26 -130 -23 -119 -159 -715
-165 -725 -2 -4 -6 -17 -8 -31 -3 -13 -13 -53 -22 -89 -9 -36 -18 -69 -19 -75
-2 -5 -8 -30 -15 -55 -7 -25 -15 -53 -17 -62 -9 -41 -95 -339 -138 -483 -20
-66 -39 -127 -41 -135 -15 -55 -86 -270 -155 -470 -44 -129 -82 -239 -84 -245
-2 -5 -6 -17 -9 -25 -3 -8 -28 -76 -56 -150 -51 -140 -171 -449 -195 -504 -8
-17 -21 -50 -30 -73 -8 -23 -24 -61 -35 -85 -10 -24 -45 -104 -77 -178 -31
-74 -61 -142 -65 -150 -5 -8 -36 -78 -70 -155 -80 -182 -381 -793 -499 -1010
-329 -608 -654 -1138 -1035 -1690 -49 -71 -93 -134 -98 -140 -4 -5 -53 -73
-109 -150 -168 -234 -193 -267 -203 -279 -6 -6 -33 -40 -60 -76 -62 -82 -296
-381 -310 -396 -5 -6 -26 -30 -45 -54 -65 -81 -287 -344 -375 -445 -80 -92
-133 -151 -285 -318 -268 -296 -832 -855 -1130 -1123 -30 -27 -57 -52 -60 -55
-4 -5 -202 -178 -305 -268 -109 -94 -366 -306 -545 -448 -70 -56 -198 -156
-260 -202 -41 -31 -82 -61 -90 -68 -93 -74 -467 -341 -700 -498 -297 -201
-824 -531 -1045 -655 -22 -12 -89 -50 -150 -85 -165 -93 -200 -112 -325 -178
-63 -33 -119 -63 -125 -67 -48 -36 -737 -368 -1043 -504 -94 -42 -227 -99
-294 -126 -68 -28 -137 -58 -154 -65 -35 -16 -341 -137 -401 -158 -21 -8 -92
-34 -158 -59 -208 -79 -776 -273 -832 -284 -12 -2 -35 -9 -50 -15 -16 -6 -35
-13 -43 -15 -8 -2 -107 -31 -220 -64 -113 -34 -212 -63 -221 -65 -8 -2 -73
-19 -145 -38 -147 -41 -367 -97 -404 -103 -14 -3 -43 -10 -65 -16 -22 -5 -47
-12 -55 -13 -300 -68 -462 -103 -551 -120 -13 -3 -69 -14 -124 -24 -125 -25
-151 -30 -195 -37 -19 -3 -82 -14 -140 -24 -137 -26 -141 -26 -305 -50 -77
-12 -151 -23 -165 -25 -14 -2 -47 -7 -75 -10 -27 -4 -57 -8 -65 -10 -8 -2 -42
-7 -75 -11 -33 -3 -69 -8 -80 -10 -11 -2 -47 -6 -80 -9 -33 -3 -71 -8 -85 -10
-14 -3 -50 -7 -80 -10 -30 -2 -71 -7 -90 -10 -19 -3 -60 -8 -90 -10 -70 -6
-162 -15 -221 -21 -25 -2 -72 -6 -105 -9 -151 -10 -232 -16 -269 -20 -22 -2
-96 -7 -165 -10 -69 -4 -156 -8 -195 -11 -397 -23 -1216 -23 -1670 1 -275 14
-323 16 -355 20 -19 2 -75 7 -125 10 -49 3 -115 8 -145 10 -30 3 -77 8 -105
10 -27 2 -81 7 -120 10 -38 4 -81 8 -95 10 -14 3 -54 7 -90 10 -36 4 -81 8
-100 10 -103 11 -147 17 -166 20 -12 2 -48 6 -80 10 -33 4 -70 9 -84 11 -14 2
-50 6 -80 9 -30 4 -62 8 -70 10 -8 3 -37 7 -65 10 -27 3 -57 8 -65 10 -8 2
-35 7 -60 10 -25 3 -85 13 -135 20 -49 8 -108 17 -130 20 -22 4 -47 8 -55 10
-8 3 -32 7 -54 11 -21 3 -48 8 -60 10 -11 2 -37 7 -56 10 -19 3 -136 26 -260
51 -124 24 -236 47 -249 49 -117 23 -588 135 -756 180 -115 31 -217 57 -225
59 -8 2 -71 20 -140 40 -938 273 -1686 551 -2545 945 -110 50 -741 364 -830
413 -44 24 -125 67 -180 96 -55 30 -104 57 -110 61 -5 4 -35 21 -65 37 -111
61 -349 200 -469 274 -34 21 -64 39 -66 39 -6 0 -373 232 -535 339 -330 217
-936 652 -1146 824 -10 8 -93 75 -184 148 -140 112 -407 335 -515 430 -16 15
-70 62 -120 105 -49 44 -99 88 -111 99 -11 11 -63 58 -114 105 -175 159 -284
265 -535 515 -235 235 -317 320 -475 491 -36 39 -86 93 -111 120 -379 409
-943 1110 -1292 1605 -21 30 -70 99 -109 154 -171 241 -534 807 -700 1090
-163 277 -357 625 -421 755 -18 36 -34 67 -37 70 -7 7 -247 491 -300 605 -86
184 -114 244 -182 400 -179 409 -276 650 -440 1100 -133 367 -225 651 -361
1115 -34 116 -101 364 -131 485 -14 55 -36 146 -50 202 -14 56 -28 112 -30
125 -3 13 -15 66 -27 118 -11 52 -25 113 -30 135 -4 22 -10 49 -13 60 -40 184
-115 573 -140 730 -3 17 -12 71 -20 120 -9 50 -18 106 -20 125 -3 19 -14 96
-25 170 -11 74 -23 155 -26 180 -3 25 -12 95 -20 155 -8 61 -17 137 -20 170
-3 33 -8 74 -10 90 -2 17 -7 57 -10 90 -3 33 -7 78 -10 100 -9 81 -17 161 -20
218 -2 31 -6 79 -9 105 -3 26 -8 92 -11 147 -3 55 -8 123 -10 150 -6 65 -13
191 -22 395 -10 217 -10 1232 0 1430 5 85 10 191 12 235 9 184 39 591 50 685
2 19 7 64 10 100 3 36 8 81 10 100 2 19 7 62 10 95 3 33 7 69 9 80 2 11 7 47
10 80 14 122 17 151 21 175 2 14 7 43 9 65 12 92 17 133 26 185 5 30 12 75 15
100 3 25 10 70 15 100 5 30 11 69 13 85 3 17 10 59 16 95 18 99 20 110 31 175
26 154 124 640 165 815 2 8 17 76 35 150 17 74 33 142 35 150 2 8 4 15 5 15 2
0 5 15 13 50 2 11 9 40 16 65 7 25 14 52 16 61 11 55 152 557 195 694 183 582
291 888 460 1315 152 382 221 542 400 935 13 28 94 194 181 370 146 295 211
422 306 595 19 36 54 99 76 140 22 41 44 77 49 78 4 2 8 10 8 18 0 8 8 27 19
42 10 15 60 99 111 187 177 306 346 575 573 915 116 173 144 214 201 295 8 11
46 65 85 120 38 55 73 105 78 110 5 6 38 51 73 100 36 50 67 92 71 95 3 3 25
32 49 65 46 63 320 416 329 425 4 3 24 28 46 55 44 55 39 49 156 190 151 182
415 484 519 595 14 15 68 74 120 131 107 117 713 725 835 838 44 40 105 96
135 125 30 28 90 82 133 120 42 38 88 78 100 90 41 37 295 256 363 312 99 83
231 191 314 256 47 37 121 96 165 131 102 81 412 313 530 397 50 35 92 67 95
70 7 7 105 74 340 232 113 75 210 141 216 146 5 5 21 15 35 22 13 7 26 16 29
19 3 3 14 11 25 17 11 7 114 71 229 143 114 72 209 131 211 131 1 0 49 28 106
63 57 35 129 77 159 94 30 16 98 55 150 85 199 115 437 242 735 392 650 328
1410 654 2010 860 44 16 89 32 100 36 107 44 846 274 1058 330 40 11 147 39
240 64 92 24 167 42 167 40 0 -3 8 0 19 5 10 6 33 13 52 16 19 3 86 19 149 35
97 24 328 76 420 95 14 2 93 18 175 35 83 17 166 33 185 36 19 3 42 7 50 9 8
3 33 7 55 11 22 3 85 14 140 24 55 10 116 21 135 24 19 3 46 8 60 10 55 10
190 30 270 41 25 3 56 8 70 10 14 2 45 6 70 10 25 3 56 8 70 10 14 2 50 7 80
10 30 4 66 8 80 10 28 4 106 13 165 20 22 2 63 7 90 10 102 11 213 22 300 30
39 3 90 8 115 10 25 3 83 7 130 10 47 3 105 8 130 10 25 3 99 7 165 11 66 4
138 8 160 9 22 2 137 6 255 10 118 4 216 8 218 10 5 5 1019 -4 1122 -9z"/>
<path d="M18289 35532 c-78 -134 -367 -637 -387 -672 -13 -25 -28 -49 -32 -55
-8 -11 -145 -249 -458 -795 -118 -206 -223 -388 -232 -405 -10 -16 -60 -104
-112 -195 -52 -91 -197 -341 -320 -556 -124 -215 -238 -413 -253 -440 -15 -27
-31 -53 -35 -59 -4 -5 -19 -30 -32 -55 -14 -25 -85 -148 -158 -275 -158 -274
-238 -413 -266 -463 -11 -20 -72 -127 -136 -237 -121 -209 -366 -635 -400
-695 -11 -19 -71 -123 -133 -230 -172 -299 -543 -943 -635 -1105 -10 -16 -111
-192 -225 -390 -114 -198 -218 -379 -231 -402 -13 -23 -61 -106 -107 -185 -46
-79 -86 -150 -90 -158 -4 -8 -13 -24 -20 -35 -14 -24 -135 -232 -169 -291 -72
-127 -209 -365 -269 -468 -38 -66 -69 -121 -69 -122 0 -1 -18 -33 -40 -70 -23
-38 -45 -76 -49 -84 -36 -61 -341 -592 -362 -629 -15 -25 -67 -116 -116 -201
-49 -85 -161 -279 -248 -430 -275 -479 -384 -668 -405 -702 -11 -18 -23 -40
-27 -48 -4 -8 -20 -37 -36 -65 -39 -65 -127 -218 -159 -275 -14 -25 -67 -117
-118 -205 -50 -88 -102 -178 -115 -200 -56 -99 -138 -241 -210 -365 -151 -261
-188 -325 -208 -360 -51 -91 -377 -657 -434 -753 -34 -60 -63 -111 -63 -113 0
-2 -11 -21 -23 -42 -13 -20 -35 -57 -49 -82 -14 -25 -57 -99 -95 -165 -39 -66
-81 -140 -95 -165 -14 -25 -83 -146 -155 -270 -131 -226 -350 -607 -385 -667
-10 -18 -26 -48 -36 -65 -11 -18 -45 -78 -77 -133 -51 -87 -145 -251 -179
-310 -117 -205 -143 -250 -157 -273 -9 -15 -27 -47 -41 -72 -32 -55 -206 -358
-360 -625 -64 -110 -125 -217 -137 -237 -11 -21 -29 -53 -40 -70 -10 -18 -84
-148 -165 -288 -80 -140 -150 -262 -155 -270 -5 -8 -92 -158 -193 -334 -100
-175 -192 -335 -204 -355 -11 -20 -73 -126 -136 -236 -341 -593 -444 -771
-564 -979 l-131 -230 31 -17 c17 -9 123 -70 236 -136 113 -65 212 -122 220
-126 8 -4 24 -13 35 -20 93 -56 342 -197 348 -197 3 0 7 8 11 18 3 9 10 24 16
32 9 14 264 455 314 545 13 22 57 99 98 170 41 72 154 267 250 435 97 168 205
356 242 419 36 62 66 115 66 116 0 2 28 50 61 107 34 57 73 123 87 148 28 49
160 279 310 540 52 91 112 194 132 230 29 51 297 517 471 818 27 46 147 256
165 287 6 11 60 106 121 210 60 105 190 330 288 500 98 171 203 353 233 405
30 52 63 109 72 125 30 52 289 502 403 700 60 105 123 215 140 245 16 30 33
60 37 65 5 6 79 134 165 285 87 151 225 392 308 535 274 475 333 578 472 820
76 132 170 296 210 365 220 381 307 533 331 577 42 75 47 83 82 137 17 28 32
54 32 59 0 5 8 21 19 35 10 15 29 47 43 72 25 44 110 192 333 580 62 107 122
212 133 232 12 20 32 55 46 77 15 22 26 43 26 45 0 2 27 50 60 106 33 56 60
104 60 107 0 3 8 17 19 31 10 15 29 47 43 72 14 25 96 169 183 320 87 151 225
392 308 535 142 248 238 412 257 445 5 8 70 121 144 250 74 129 142 249 153
267 60 105 224 391 303 528 51 88 101 176 112 195 11 19 44 76 73 125 29 50
63 110 77 135 35 62 196 342 208 360 5 8 24 42 43 75 18 33 111 195 207 360
191 332 352 611 382 665 24 42 97 168 245 425 61 105 121 210 135 235 38 69
61 107 117 202 28 48 51 91 51 97 0 6 5 11 10 11 6 0 10 4 10 8 0 5 124 224
276 488 543 943 623 1082 650 1130 14 27 29 52 33 56 6 7 51 -65 128 -202 11
-19 91 -159 178 -310 87 -151 167 -291 177 -310 11 -19 24 -39 28 -45 4 -5 21
-35 37 -65 16 -30 115 -203 220 -385 104 -181 201 -350 215 -375 14 -25 76
-133 138 -240 62 -107 127 -220 143 -250 17 -30 48 -83 69 -118 21 -34 38 -64
38 -67 0 -3 18 -34 40 -70 22 -36 40 -70 40 -75 0 -6 5 -10 10 -10 6 0 10 -5
10 -10 0 -10 241 -433 297 -522 12 -21 23 -40 23 -42 0 -3 22 -43 49 -88 27
-46 104 -180 171 -298 68 -118 131 -228 140 -245 10 -16 71 -122 135 -235 65
-113 126 -218 137 -235 10 -16 21 -37 25 -45 4 -8 38 -69 76 -135 81 -140 66
-114 242 -420 76 -132 151 -265 168 -295 16 -30 33 -59 37 -65 4 -5 88 -149
185 -320 98 -170 203 -353 233 -405 31 -52 56 -97 55 -100 -1 -3 4 -12 11 -20
7 -8 75 -125 152 -260 76 -135 141 -247 144 -250 3 -3 13 -21 24 -40 31 -57
67 -122 101 -180 63 -107 120 -205 136 -235 9 -16 43 -75 74 -130 32 -55 69
-120 82 -145 14 -25 29 -49 33 -55 4 -5 19 -30 32 -55 46 -83 360 -630 413
-720 18 -30 44 -75 57 -100 49 -88 421 -735 428 -745 4 -5 24 -41 45 -80 21
-38 42 -75 47 -82 5 -7 17 -27 27 -45 9 -18 70 -125 135 -237 65 -112 126
-218 136 -235 9 -17 79 -139 155 -271 76 -132 149 -260 163 -285 14 -25 28
-49 32 -55 4 -5 19 -30 32 -55 14 -25 85 -148 158 -275 73 -126 143 -248 155
-270 13 -22 58 -101 100 -175 43 -74 83 -144 89 -155 13 -24 163 -283 176
-305 16 -28 117 -204 140 -245 29 -51 172 -301 199 -346 11 -19 26 -45 34 -59
21 -39 43 -76 310 -540 137 -239 261 -455 275 -480 14 -25 66 -117 117 -205
91 -158 351 -610 386 -672 10 -17 89 -154 175 -305 87 -150 169 -293 182 -318
13 -25 27 -49 32 -55 4 -5 19 -30 32 -55 34 -61 59 -105 97 -168 17 -29 31
-54 31 -56 0 -2 43 -76 95 -165 52 -90 95 -164 95 -166 0 -1 30 -54 66 -116
73 -124 93 -159 125 -216 12 -21 54 -94 94 -163 39 -69 83 -145 97 -170 14
-25 73 -128 132 -229 58 -101 106 -185 106 -188 0 -3 8 -17 18 -31 11 -15 33
-52 49 -82 17 -30 90 -158 163 -285 73 -126 154 -269 182 -317 27 -49 51 -88
52 -88 2 0 180 102 397 226 217 125 410 235 429 246 19 11 37 22 39 24 2 1 -6
18 -17 36 -11 18 -29 49 -40 68 -10 19 -63 112 -117 205 -54 94 -142 247 -195
340 -54 94 -106 185 -116 202 -181 313 -233 404 -255 443 -14 25 -61 106 -104
180 -43 74 -89 155 -103 180 -14 25 -93 162 -175 305 -83 143 -157 274 -165
290 -8 17 -23 41 -32 55 -9 14 -29 48 -44 75 -16 28 -72 127 -126 220 -54 94
-184 321 -289 505 -106 184 -196 342 -201 350 -5 8 -24 42 -43 75 -43 76 -58
101 -147 255 -40 69 -86 150 -103 180 -16 30 -33 60 -37 65 -4 6 -18 30 -32
55 -14 25 -68 119 -120 210 -163 281 -238 413 -238 418 0 2 -8 16 -19 30 -10
15 -29 47 -43 72 -27 49 -308 540 -393 685 -29 50 -63 110 -77 135 -14 25 -76
133 -138 240 -62 107 -124 215 -138 240 -14 25 -84 149 -157 275 -73 127 -142
246 -152 265 -11 19 -100 175 -198 345 -98 171 -186 324 -195 341 -10 16 -94
163 -187 325 -149 258 -365 634 -442 770 -37 65 -231 401 -242 419 -16 27
-106 184 -131 230 -14 25 -51 90 -83 145 -32 55 -66 114 -75 130 -23 40 -184
321 -302 525 -52 91 -106 185 -120 210 -14 25 -59 104 -100 175 -109 189 -408
709 -586 1020 -85 149 -158 275 -162 280 -4 6 -21 35 -37 65 -28 52 -162 287
-182 320 -13 21 -169 292 -207 360 -17 30 -116 204 -221 385 -104 182 -225
392 -269 468 -43 75 -92 159 -107 185 -15 26 -32 56 -37 67 -6 11 -14 27 -20
35 -11 17 -26 43 -344 598 -130 227 -245 427 -256 445 -10 18 -25 43 -33 57
-23 43 -569 994 -588 1025 -11 17 -22 37 -26 45 -4 8 -20 38 -36 65 -17 28
-37 64 -47 80 -9 17 -70 122 -135 235 -65 113 -128 223 -140 245 -12 22 -63
112 -114 200 -76 130 -398 693 -478 835 -55 96 -382 665 -420 730 -24 41 -49
84 -55 95 -59 105 -322 562 -327 567 -3 4 -13 -5 -22 -20z"/>
<path d="M11427 17920 l1 -2610 -51 -1 c-29 0 -733 -1 -1564 -1 l-1513 0 0
-499 0 -499 28 0 c35 -1 19807 -1 19890 0 l62 0 0 499 0 499 -1577 0 c-868 0
-1585 1 -1593 1 -13 1 -15 42 -14 311 l2 310 -946 2 -945 3 -1 467 c-1 407 1
467 14 470 8 2 333 4 722 3 466 0 709 3 711 10 3 9 1 956 -2 980 -1 7 -246 10
-721 10 -635 0 -720 2 -721 15 -3 106 1 1233 5 1237 3 3 427 6 943 7 l938 1 1
498 1 497 -26 1 c-110 3 -2855 -2 -2859 -5 -2 -3 -5 -1088 -5 -2411 0 -1774
-2 -2405 -11 -2406 -86 -4 -1906 -2 -1906 3 0 3 125 78 278 166 383 221 455
262 472 273 8 5 56 32 105 60 50 28 104 60 122 70 17 10 134 77 260 150 125
72 244 140 263 151 116 66 220 129 220 135 0 3 -28 33 -62 65 -34 33 -156 150
-271 261 -115 111 -240 231 -277 267 -37 36 -179 173 -316 306 -137 133 -272
263 -300 290 -29 27 -155 148 -280 270 -126 122 -275 265 -331 319 -57 55
-103 101 -103 105 0 3 15 14 33 25 17 10 37 23 42 27 6 5 60 41 122 81 186
119 475 306 621 402 76 50 183 119 238 154 180 117 347 226 459 299 61 39 154
100 207 134 l96 63 -26 40 c-15 22 -106 162 -202 310 -96 149 -202 311 -235
362 -33 50 -65 100 -71 109 -9 16 -19 12 -95 -36 -46 -29 -91 -59 -99 -66 -8
-7 -26 -19 -40 -26 -14 -8 -74 -46 -135 -85 -60 -40 -168 -110 -240 -157 -190
-123 -343 -223 -490 -318 -71 -47 -170 -111 -220 -143 -522 -339 -766 -498
-852 -554 -57 -36 -172 -111 -256 -166 -85 -55 -213 -138 -286 -185 -199 -128
-186 -107 -114 -176 33 -33 163 -158 288 -279 125 -121 265 -256 311 -300 45
-44 176 -171 291 -281 114 -111 233 -225 263 -254 30 -29 159 -153 285 -275
127 -123 268 -259 314 -303 74 -70 93 -102 61 -102 -4 0 -84 -44 -177 -98 -92
-54 -323 -188 -513 -297 -190 -109 -381 -219 -425 -245 -44 -26 -208 -120
-365 -210 -157 -90 -305 -175 -330 -190 -25 -15 -67 -39 -93 -54 l-48 -27 21
-35 22 -34 -39 -1 c-39 -1 -225 0 -254 0 -15 1 -16 32 -17 299 0 163 -1 302
-1 308 -1 8 -112 12 -398 12 -219 1 -415 1 -435 2 l-38 0 0 1600 0 1600 33 1
c17 0 269 0 560 1 l527 0 0 499 0 499 -227 1 c-302 0 -2984 0 -3000 0 -10 -1
-13 -108 -13 -500 l0 -499 528 0 c290 -1 542 -1 560 -1 l32 -1 0 -1600 0
-1600 -27 -1 c-16 0 -204 0 -419 0 l-391 1 0 -306 c0 -167 -3 -307 -6 -310 -6
-6 -477 -9 -480 -3 -2 2 -276 415 -611 918 -334 502 -610 918 -612 925 -3 7
31 24 88 43 145 49 447 152 753 258 154 53 424 146 600 207 176 60 374 129
441 151 66 23 121 47 122 52 1 8 -205 141 -458 295 -25 15 -191 119 -370 230
-179 112 -334 208 -345 214 -11 6 -31 19 -45 28 -45 29 -934 580 -1000 620
-36 21 -110 67 -165 101 -55 35 -226 141 -380 236 -154 95 -296 184 -315 196
-19 13 -204 128 -410 255 -206 128 -391 242 -410 255 -56 36 -379 235 -382
235 -2 0 -2 -1174 -1 -2610z m1151 719 c57 -35 110 -68 120 -74 9 -5 86 -53
170 -105 84 -52 163 -102 177 -110 247 -151 362 -226 352 -231 -47 -24 -958
-321 -965 -315 -3 4 -6 796 -3 905 1 22 2 22 24 8 12 -8 69 -43 125 -78z m217
-1932 c44 -67 82 -124 85 -127 3 -3 30 -43 61 -90 132 -202 254 -385 259 -390
3 -3 36 -52 74 -110 38 -58 86 -131 108 -162 21 -31 58 -87 83 -125 24 -37 48
-73 53 -78 5 -6 11 -15 13 -20 2 -6 46 -72 97 -149 51 -76 91 -141 88 -143 -7
-7 -1275 -7 -1282 0 -7 7 -9 1426 -2 1432 8 9 243 83 263 84 15 0 41 -31 100
-122z"/>
<path d="M30965 13589 c-88 -55 -167 -103 -175 -107 -8 -4 -104 -61 -213 -127
-109 -66 -219 -132 -245 -147 -26 -15 -46 -33 -44 -40 2 -6 62 -109 134 -227
72 -119 150 -247 172 -284 49 -83 33 -57 246 -407 95 -157 181 -298 190 -315
9 -16 95 -158 190 -315 95 -157 217 -359 272 -450 146 -241 305 -504 462 -765
77 -126 243 -401 369 -610 126 -209 230 -381 232 -383 1 -1 22 9 46 23 72 41
800 483 806 488 5 5 -91 167 -407 687 -95 157 -181 298 -189 313 -9 16 -21 36
-26 45 -26 42 -100 163 -136 221 -21 34 -39 65 -39 66 0 2 -27 48 -60 102 -33
54 -64 105 -69 113 -44 73 -207 344 -254 420 -32 52 -62 102 -67 110 -5 8 -20
33 -33 55 -13 22 -129 213 -257 425 -128 212 -245 405 -259 428 -14 24 -34 58
-44 74 -17 29 -98 163 -325 538 -55 90 -104 165 -109 166 -4 1 -80 -42 -168
-97z"/>
<path d="M5527 13593 c-7 -16 -23 -44 -34 -63 -21 -36 -210 -368 -535 -940
-205 -360 -295 -517 -308 -540 -13 -21 -151 -264 -185 -325 -15 -27 -80 -142
-145 -255 -64 -113 -128 -225 -142 -250 -14 -25 -35 -61 -47 -80 -11 -19 -24
-42 -28 -50 -4 -8 -47 -85 -96 -170 -49 -85 -103 -180 -120 -210 -17 -30 -64
-113 -105 -185 -41 -71 -85 -148 -97 -170 -11 -22 -69 -124 -128 -227 -59
-103 -110 -194 -113 -202 -5 -13 8 -22 136 -94 19 -10 183 -104 365 -208 181
-104 337 -192 346 -196 13 -5 35 28 110 160 51 92 103 183 115 202 18 29 263
460 347 610 14 25 65 115 114 200 49 85 92 162 96 170 4 8 17 31 28 50 12 19
98 170 192 335 93 165 178 314 188 330 18 32 151 266 423 745 93 162 185 324
206 360 21 36 99 173 173 304 l136 239 -162 92 c-89 50 -182 103 -207 117 -25
14 -144 82 -265 152 -121 69 -225 126 -232 126 -6 0 -18 -12 -26 -27z"/>
</g>
</svg>
